solid diamond
facet normal 0 0 1
outer loop
vertex 0 0 0.38
vertex 0.56 0 0.38
vertex 0.396 0.396 0.38
endloop
endfacet
facet normal 0 0 1
outer loop
vertex 0 0 0.38
vertex 0.396 0.396 0.38
vertex 0 0.56 0.38
endloop
endfacet
facet normal 0 0 1
outer loop
vertex 0 0 0.38
vertex 0 0.56 0.38
vertex -0.396 0.396 0.38
endloop
endfacet
facet normal 0 0 1
outer loop
vertex 0 0 0.38
vertex -0.396 0.396 0.38
vertex -0.56 0 0.38
endloop
endfacet
facet normal 0 0 1
outer loop
vertex 0 0 0.38
vertex -0.56 0 0.38
vertex -0.396 -0.396 0.38
endloop
endfacet
facet normal 0 0 1
outer loop
vertex 0 0 0.38
vertex -0.396 -0.396 0.38
vertex 0 -0.56 0.38
endloop
endfacet
facet normal 0 0 1
outer loop
vertex 0 0 0.38
vertex 0 -0.56 0.38
vertex 0.396 -0.396 0.38
endloop
endfacet
facet normal 0 0 1
outer loop
vertex 0 0 0.38
vertex 0.396 -0.396 0.38
vertex 0.56 0 0.38
endloop
endfacet
facet normal 0.6482 0.1289 0.7505
outer loop
vertex 0.56 0 0.38
vertex 1 0 0
vertex 0.9239 0.3827 0
endloop
endfacet
facet normal 0.5715 0.2367 0.7857
outer loop
vertex 0.56 0 0.38
vertex 0.9239 0.3827 0
vertex 0.396 0.396 0.38
endloop
endfacet
facet normal 0.5495 0.3672 0.7505
outer loop
vertex 0.396 0.396 0.38
vertex 0.9239 0.3827 0
vertex 0.7071 0.7071 0
endloop
endfacet
facet normal 0.3672 0.5495 0.7505
outer loop
vertex 0.396 0.396 0.38
vertex 0.7071 0.7071 0
vertex 0.3827 0.9239 0
endloop
endfacet
facet normal 0.2367 0.5715 0.7857
outer loop
vertex 0.396 0.396 0.38
vertex 0.3827 0.9239 0
vertex 0 0.56 0.38
endloop
endfacet
facet normal 0.1289 0.6482 0.7505
outer loop
vertex 0 0.56 0.38
vertex 0.3827 0.9239 0
vertex 0 1 0
endloop
endfacet
facet normal -0.1289 0.6482 0.7505
outer loop
vertex 0 0.56 0.38
vertex 0 1 0
vertex -0.3827 0.9239 0
endloop
endfacet
facet normal -0.2367 0.5715 0.7857
outer loop
vertex 0 0.56 0.38
vertex -0.3827 0.9239 0
vertex -0.396 0.396 0.38
endloop
endfacet
facet normal -0.3672 0.5495 0.7505
outer loop
vertex -0.396 0.396 0.38
vertex -0.3827 0.9239 0
vertex -0.7071 0.7071 0
endloop
endfacet
facet normal -0.5495 0.3672 0.7505
outer loop
vertex -0.396 0.396 0.38
vertex -0.7071 0.7071 0
vertex -0.9239 0.3827 0
endloop
endfacet
facet normal -0.5715 0.2367 0.7857
outer loop
vertex -0.396 0.396 0.38
vertex -0.9239 0.3827 0
vertex -0.56 0 0.38
endloop
endfacet
facet normal -0.6482 0.1289 0.7505
outer loop
vertex -0.56 0 0.38
vertex -0.9239 0.3827 0
vertex -1 0 0
endloop
endfacet
facet normal -0.6482 -0.1289 0.7505
outer loop
vertex -0.56 0 0.38
vertex -1 0 0
vertex -0.9239 -0.3827 0
endloop
endfacet
facet normal -0.5715 -0.2367 0.7857
outer loop
vertex -0.56 0 0.38
vertex -0.9239 -0.3827 0
vertex -0.396 -0.396 0.38
endloop
endfacet
facet normal -0.5495 -0.3672 0.7505
outer loop
vertex -0.396 -0.396 0.38
vertex -0.9239 -0.3827 0
vertex -0.7071 -0.7071 0
endloop
endfacet
facet normal -0.3672 -0.5495 0.7505
outer loop
vertex -0.396 -0.396 0.38
vertex -0.7071 -0.7071 0
vertex -0.3827 -0.9239 0
endloop
endfacet
facet normal -0.2367 -0.5715 0.7857
outer loop
vertex -0.396 -0.396 0.38
vertex -0.3827 -0.9239 0
vertex 0 -0.56 0.38
endloop
endfacet
facet normal -0.1289 -0.6482 0.7505
outer loop
vertex 0 -0.56 0.38
vertex -0.3827 -0.9239 0
vertex 0 -1 0
endloop
endfacet
facet normal 0.1289 -0.6482 0.7505
outer loop
vertex 0 -0.56 0.38
vertex 0 -1 0
vertex 0.3827 -0.9239 0
endloop
endfacet
facet normal 0.2367 -0.5715 0.7857
outer loop
vertex 0 -0.56 0.38
vertex 0.3827 -0.9239 0
vertex 0.396 -0.396 0.38
endloop
endfacet
facet normal 0.3672 -0.5495 0.7505
outer loop
vertex 0.396 -0.396 0.38
vertex 0.3827 -0.9239 0
vertex 0.7071 -0.7071 0
endloop
endfacet
facet normal 0.5495 -0.3672 0.7505
outer loop
vertex 0.396 -0.396 0.38
vertex 0.7071 -0.7071 0
vertex 0.9239 -0.3827 0
endloop
endfacet
facet normal 0.5715 -0.2367 0.7857
outer loop
vertex 0.396 -0.396 0.38
vertex 0.9239 -0.3827 0
vertex 0.56 0 0.38
endloop
endfacet
facet normal 0.6482 -0.1289 0.7505
outer loop
vertex 0.56 0 0.38
vertex 0.9239 -0.3827 0
vertex 1 0 0
endloop
endfacet
facet normal 0.7167 0.1426 -0.6826
outer loop
vertex 0 0 -1.05
vertex 0.9239 0.3827 0
vertex 1 0 0
endloop
endfacet
facet normal 0.6076 0.406 -0.6826
outer loop
vertex 0 0 -1.05
vertex 0.7071 0.7071 0
vertex 0.9239 0.3827 0
endloop
endfacet
facet normal 0.406 0.6076 -0.6826
outer loop
vertex 0 0 -1.05
vertex 0.3827 0.9239 0
vertex 0.7071 0.7071 0
endloop
endfacet
facet normal 0.1426 0.7167 -0.6826
outer loop
vertex 0 0 -1.05
vertex 0 1 0
vertex 0.3827 0.9239 0
endloop
endfacet
facet normal -0.1426 0.7167 -0.6826
outer loop
vertex 0 0 -1.05
vertex -0.3827 0.9239 0
vertex 0 1 0
endloop
endfacet
facet normal -0.406 0.6076 -0.6826
outer loop
vertex 0 0 -1.05
vertex -0.7071 0.7071 0
vertex -0.3827 0.9239 0
endloop
endfacet
facet normal -0.6076 0.406 -0.6826
outer loop
vertex 0 0 -1.05
vertex -0.9239 0.3827 0
vertex -0.7071 0.7071 0
endloop
endfacet
facet normal -0.7167 0.1426 -0.6826
outer loop
vertex 0 0 -1.05
vertex -1 0 0
vertex -0.9239 0.3827 0
endloop
endfacet
facet normal -0.7167 -0.1426 -0.6826
outer loop
vertex 0 0 -1.05
vertex -0.9239 -0.3827 0
vertex -1 0 0
endloop
endfacet
facet normal -0.6076 -0.406 -0.6826
outer loop
vertex 0 0 -1.05
vertex -0.7071 -0.7071 0
vertex -0.9239 -0.3827 0
endloop
endfacet
facet normal -0.406 -0.6076 -0.6826
outer loop
vertex 0 0 -1.05
vertex -0.3827 -0.9239 0
vertex -0.7071 -0.7071 0
endloop
endfacet
facet normal -0.1426 -0.7167 -0.6826
outer loop
vertex 0 0 -1.05
vertex 0 -1 0
vertex -0.3827 -0.9239 0
endloop
endfacet
facet normal 0.1426 -0.7167 -0.6826
outer loop
vertex 0 0 -1.05
vertex 0.3827 -0.9239 0
vertex 0 -1 0
endloop
endfacet
facet normal 0.406 -0.6076 -0.6826
outer loop
vertex 0 0 -1.05
vertex 0.7071 -0.7071 0
vertex 0.3827 -0.9239 0
endloop
endfacet
facet normal 0.6076 -0.406 -0.6826
outer loop
vertex 0 0 -1.05
vertex 0.9239 -0.3827 0
vertex 0.7071 -0.7071 0
endloop
endfacet
facet normal 0.7167 -0.1426 -0.6826
outer loop
vertex 0 0 -1.05
vertex 1 0 0
vertex 0.9239 -0.3827 0
endloop
endfacet
endsolid diamond
